<svg width="128" height="128" viewBox="0 0 128 128" xmlns="http://www.w3.org/2000/svg">
  <defs>
    <linearGradient id="grad1" x1="0%" y1="0%" x2="100%" y2="100%">
      <stop offset="0%" style="stop-color:#667eea;stop-opacity:1" />
      <stop offset="100%" style="stop-color:#764ba2;stop-opacity:1" />
    </linearGradient>
  </defs>
  
  <!-- 背景圆形 -->
  <circle cx="64" cy="64" r="60" fill="url(#grad1)" stroke="#fff" stroke-width="4"/>
  
  <!-- AI大脑图标 -->
  <g fill="#fff" opacity="0.9">
    <!-- 大脑轮廓 -->
    <path d="M64 25 C45 25 30 40 30 60 C30 80 45 95 64 95 C83 95 98 80 98 60 C98 40 83 25 64 25 Z M64 30 C80 30 93 43 93 60 C93 77 80 90 64 90 C48 90 35 77 35 60 C35 43 48 30 64 30 Z"/>
    
    <!-- 大脑纹理 -->
    <path d="M40 45 Q50 35 64 35 Q78 35 88 45 Q88 55 78 65 Q64 75 50 65 Q40 55 40 45 Z"/>
    <path d="M40 75 Q50 85 64 85 Q78 85 88 75 Q88 65 78 55 Q64 45 50 55 Q40 65 40 75 Z"/>
    
    <!-- 中心点 -->
    <circle cx="64" cy="60" r="8"/>
    
    <!-- 连接线 -->
    <line x1="64" y1="52" x2="64" y2="68" stroke="#fff" stroke-width="2"/>
    <line x1="56" y1="60" x2="72" y2="60" stroke="#fff" stroke-width="2"/>
  </g>
  
  <!-- 邮箱图标 -->
  <g fill="#fff" opacity="0.7">
    <rect x="20" y="100" width="88" height="20" rx="3"/>
    <rect x="22" y="102" width="84" height="16" rx="2" fill="url(#grad1)"/>
    <text x="64" y="113" text-anchor="middle" font-family="Arial" font-size="12" fill="#fff">@</text>
  </g>
</svg>

